<svg xmlns="http://www.w3.org/2000/svg" id="master-artboard" viewBox="0 0 1400 980" version="1.1" x="0px" y="0px" style="enable-background:new 0 0 1400 980;" width="1400px" height="980px"><g transform="matrix(0.6533333333333333, 0, 0, 0.6533333333333333, 210.0000805518648, 0)"><path d="M 0 0 H 1500 V 1500 H 0 V 0 Z" class="st0" style="fill: rgb(247, 230, 209);"/><g>
	<g>
		<g>
			<g>
				<path class="st1" d="M1376.5,938.6h-103.2V634.9h103.2c24.6,0,44.5,19.9,44.5,44.5v214.7C1421,918.7,1401,938.6,1376.5,938.6z" style="fill: rgb(37, 37, 40);"/>
			</g>
			<g>
				<path class="st1" d="M123.5,938.6h103.2V634.9H123.5C99,634.9,79,654.9,79,679.4v214.7C79,918.7,99,938.6,123.5,938.6z" style="fill: rgb(37, 37, 40);"/>
			</g>
		</g>
		<g>
			<g>
				<path d="M 1331.900024 786.799988 A 581.900024 581.900024 0 0 1 750 1368.700012 A 581.900024 581.900024 0 0 1 168.099976 786.799988 A 581.900024 581.900024 0 0 1 750 204.899963 A 581.900024 581.900024 0 0 1 1331.900024 786.799988 Z" class="st2" style="fill: rgb(44, 44, 45);"/>
			</g>
		</g>
		<g>
			<g>
				<path d="M 1251.200012 786.799988 A 501.200012 501.200012 0 0 1 750 1288 A 501.200012 501.200012 0 0 1 248.799988 786.799988 A 501.200012 501.200012 0 0 1 750 285.599976 A 501.200012 501.200012 0 0 1 1251.200012 786.799988 Z" class="st3" style="fill: rgb(25, 25, 25);"/>
			</g>
		</g>
		<g>
			<g>
				<path d="M 1231.299988 786.799988 A 481.299988 481.299988 0 0 1 750 1268.099976 A 481.299988 481.299988 0 0 1 268.700012 786.799988 A 481.299988 481.299988 0 0 1 750 305.5 A 481.299988 481.299988 0 0 1 1231.299988 786.799988 Z" class="st4" style="fill: rgb(149, 37, 0);"/>
			</g>
		</g>
	</g>
	<g>
		<g>
			<g>
				<path class="st5" d="M682.5,547.3C605,530.6,621,365.9,594.6,279.1c-25.9-85.2,31.8-127.7,66-102.8&#10;&#9;&#9;&#9;&#9;&#9;c14.9-69.2,67.9-49.6,68.9-0.8c17.1-46.8,69.6-60.7,76.8,8.1c48.8-40.8,78.2,4.8,55.3,49.4c44.8-19.3,73.5,27.4,24.9,79.1&#10;&#9;&#9;&#9;&#9;&#9;C801.2,403.1,785.8,569.6,682.5,547.3z" style="fill: rgb(160, 213, 29);"/>
			</g>
			<path class="st6" d="M683.7,547.6c-41.8-9-28.5-119.6-40.4-177c-11.7-56.2,18.8-143.6,70.3-71.1c10.7-31.8,61.6-34.3,63.6,11.5&#10;&#9;&#9;&#9;&#9;c53.2-27.1,52.2,37.6,24.3,73.5C752.4,447.8,739.4,559.6,683.7,547.6z" style="fill: rgb(190, 236, 47);"/>
			<g>
				<path class="st6" d="M874.2,303c6.6-4.5,12.4-10.3,16.6-17.3c12.2-20,2.6-32.2,2.6-32.5c-5.7-10.2-20.6-12.5-33.2-10.2&#10;&#9;&#9;&#9;&#9;&#9;c-2,0.3-3.9,0.9-5.8,1.4c9,0.8,23.8,1.5,31.1,9.4C897.4,266.8,884.2,288.6,874.2,303z" style="fill: rgb(190, 236, 47);"/>
			</g>
			<g>
				<path class="st6" d="M856.1,224.2c3-5.8,4.7-12.4,5-19.1c0.6-16.6-8.5-29.8-24.1-29.7c-7,0-13.2,2.5-19,6.1&#10;&#9;&#9;&#9;&#9;&#9;c5.1-0.6,11.9-1.8,18.6-0.7c12.6,2,17.5,11.7,19,24.5C856.5,211.4,856.4,217.7,856.1,224.2z" style="fill: rgb(190, 236, 47);"/>
			</g>
			<g>
				<path class="st6" d="M791.7,160.7c-1.8-10.9-13.8-18.7-27.8-14.1c-11.2,3.8-19.2,14.2-21.5,24.6c6-6.2,13-14.4,23.6-18&#10;&#9;&#9;&#9;&#9;&#9;C775.7,149.8,784.5,152.2,791.7,160.7z" style="fill: rgb(190, 236, 47);"/>
			</g>
			<g>
				<path class="st6" d="M718.2,165.2c0.1-14-10.1-26.7-23.9-26.5c-12.2,0.1-23,11.7-23.6,27.1c1.6-2.7,3.1-5.2,4.7-7.6&#10;&#9;&#9;&#9;&#9;&#9;c4.7-6.6,11-12.6,19.1-12.6C706,145.6,712.9,154.9,718.2,165.2z" style="fill: rgb(190, 236, 47);"/>
			</g>
			<g>
				<path class="st6" d="M648.2,182.7c-3.2-2.1-7-3.4-11.1-3.7c-12.4-0.4-22.1,9.4-28.4,20.1c-7.5,12.9-11.6,29.7-11.7,44.2&#10;&#9;&#9;&#9;&#9;&#9;c3.9-9.4,9.6-26.9,17.6-40.7C626.4,182.4,636.9,180.8,648.2,182.7z" style="fill: rgb(190, 236, 47);"/>
			</g>
		</g>
		<g>
			<g>
				<path class="st7" d="M611.4,565.9c67.9-40.9-0.6-191.5-3.7-282.3c-3.1-89-71.5-110.5-95.8-75.9c-36.5-60.6-80.3-24.9-65.4,21.6&#10;&#9;&#9;&#9;&#9;&#9;c-31.4-38.7-85.5-34.9-70,32.6c-59.4-22.8-72.4,29.9-36.3,64.7c-48.6-3.8-60.6,49.7,2,82.9C452.4,467.9,520.9,620.4,611.4,565.9&#10;&#9;&#9;&#9;&#9;&#9;z" style="fill: rgb(98, 185, 32);"/>
			</g>
			<path class="st8" d="M610.4,566.5c36.6-22.1-11.8-122.4-19.1-180.5c-7.1-57-64.3-129.8-89.5-44.5c-20.4-26.6-69.4-12.5-56.5,31.5&#10;&#9;&#9;&#9;&#9;c-59.1-8.4-37.3,52.5,0.8,77.4C513,494.3,561.6,595.9,610.4,566.5z" style="fill: rgb(112, 207, 43);"/>
			<g>
				<path class="st8" d="M351,396.7c-7.7-2.1-15-5.7-21.4-11c-18-14.9-12.9-29.6-13-29.9c2.1-11.5,15.5-18.5,28.1-20.4&#10;&#9;&#9;&#9;&#9;&#9;c2-0.3,4-0.4,6-0.5c-8.3,3.6-22.1,9.1-26.4,19C317.3,370.1,336.8,386.4,351,396.7z" style="fill: rgb(112, 207, 43);"/>
			</g>
			<g>
				<path class="st8" d="M342.5,316.4c-4.7-4.5-8.5-10.2-10.9-16.5c-6-15.5-1.7-31,13.1-35.9c6.6-2.2,13.3-1.9,19.9-0.4&#10;&#9;&#9;&#9;&#9;&#9;c-5.1,1.1-11.9,2.2-17.8,5.4c-11.3,6-12.7,16.8-10.1,29.3C338,304.3,340.2,310.3,342.5,316.4z" style="fill: rgb(112, 207, 43);"/>
			</g>
			<g>
				<path class="st8" d="M382.9,235.4c-1.8-10.9,7.1-22.2,21.7-22.4c11.8-0.1,22.8,7.2,28.3,16.3c-7.7-3.9-17-9.4-28.2-9.4&#10;&#9;&#9;&#9;&#9;&#9;C394.5,219.9,387,225,382.9,235.4z" style="fill: rgb(112, 207, 43);"/>
			</g>
			<g>
				<path class="st8" d="M453.9,215.9c-4.6-13.2,0.9-28.5,14.1-32.9c11.6-3.8,25.5,3.6,31.2,18c-2.4-2-4.6-4-6.9-5.7&#10;&#9;&#9;&#9;&#9;&#9;c-6.5-4.7-14.5-8.3-22.1-5.8C459.1,193.4,455.6,204.4,453.9,215.9z" style="fill: rgb(112, 207, 43);"/>
			</g>
			<g>
				<path class="st8" d="M525.8,209.7c2.3-3,5.5-5.5,9.3-7.1c11.6-4.3,23.9,1.7,33.4,9.8c11.3,9.8,20.6,24.4,25.3,38&#10;&#9;&#9;&#9;&#9;&#9;c-6.7-7.6-17.8-22.4-29.9-32.8C546.3,202.5,535.8,204.3,525.8,209.7z" style="fill: rgb(112, 207, 43);"/>
			</g>
		</g>
		<g>
			<g>
				<path class="st7" d="M812.9,558.3c65.3,45,174.2-79.7,255.5-120c79.7-39.6,71.1-110.7,29.5-118.6c40.1-58.3-10.5-83.4-46.7-50.7&#10;&#9;&#9;&#9;&#9;&#9;c22.3-44.6-3.5-92.3-58.6-50.3c-3.8-63.5-57.1-53.6-73.9-6.4c-16.6-45.8-70.3-34.7-74.7,36.1C836.5,373,725.9,498.4,812.9,558.3&#10;&#9;&#9;&#9;&#9;&#9;z" style="fill: rgb(98, 185, 32);"/>
			</g>
			<path class="st8" d="M811.9,557.7c35.2,24.2,106.6-61.3,156.5-92c49-30,91.6-112.2,3.5-99.9c15.8-29.5-17.3-68.4-52-38.4&#10;&#9;&#9;&#9;&#9;c-16.7-57.3-63.2-12.2-70.2,32.7C837.4,439.2,765,525.4,811.9,557.7z" style="fill: rgb(112, 207, 43);"/>
			<g>
				<path class="st8" d="M859.3,251.3c-1.2-7.9-1-16,1.2-24c6.2-22.6,21.6-24,21.8-24.1c11.3-2.8,23.3,6.5,30.2,17.2&#10;&#9;&#9;&#9;&#9;&#9;c1.1,1.7,2,3.5,2.9,5.2c-6.8-6.1-17.4-16.3-28.2-16.2C869.7,209.6,862.9,234.1,859.3,251.3z" style="fill: rgb(112, 207, 43);"/>
			</g>
			<g>
				<path class="st8" d="M929,210.4c2.2-6.2,5.8-11.9,10.5-16.8c11.6-11.9,27.5-14.3,38.1-2.9c4.8,5.1,7.2,11.3,8.6,18&#10;&#9;&#9;&#9;&#9;&#9;c-3.1-4.2-6.9-9.9-12.3-14c-10.2-7.8-20.5-4.7-30.9,2.9C938.1,201.3,933.6,205.7,929,210.4z" style="fill: rgb(112, 207, 43);"/>
			</g>
			<g>
				<path class="st8" d="M1019.4,213.7c9.2-6.2,23.1-2.7,29.3,10.5c5,10.7,2.8,23.7-3.1,32.5c0.4-8.6,1.6-19.3-3.1-29.6&#10;&#9;&#9;&#9;&#9;&#9;C1038.3,217.8,1030.5,213.1,1019.4,213.7z" style="fill: rgb(112, 207, 43);"/>
			</g>
			<g>
				<path class="st8" d="M1066.6,270.3c10.1-9.7,26.3-11,35.7-0.8c8.3,9,7.3,24.7-3.5,35.8c0.9-3,1.7-5.8,2.3-8.7&#10;&#9;&#9;&#9;&#9;&#9;c1.6-7.9,1.6-16.6-3.9-22.5C1089.1,265.7,1077.7,267.1,1066.6,270.3z" style="fill: rgb(112, 207, 43);"/>
			</g>
			<g>
				<path class="st8" d="M1101.8,333.2c3.7,0.9,7.3,2.8,10.3,5.6c8.7,8.8,8.3,22.5,4.9,34.4c-4.2,14.3-13.7,28.8-24.2,38.8&#10;&#9;&#9;&#9;&#9;&#9;c4.2-9.3,13-25.5,17.5-40.7C1116.9,348.9,1111,340.1,1101.8,333.2z" style="fill: rgb(112, 207, 43);"/>
			</g>
		</g>
	</g>
	<g>
		<path class="st9" d="M641.8,590.7c-79.2-21.7-179.7-34.2-233.7-21.4s-103.7,95.9,19.5,110.4c103.9,12.2,187.8,17.9,236.6,25.6&#10;&#9;&#9;&#9;C713,712.9,797.5,633.3,641.8,590.7z" style="fill: rgb(173, 96, 54);"/>
		<path class="st10" d="M683,605.2c29.1,46.1-8.7,83.2-37.2,76.3c-66-13.2-141.8-16.8-209.8-20.3c-29.6-2.3-62.6-7.5-80.9-49.4&#10;&#9;&#9;&#9;c-12.5,27.6,0.4,59.5,72.4,68c103.9,12.2,187.8,17.9,236.6,25.6C707.9,712.1,780.2,649,683,605.2z" style="fill: rgb(198, 158, 115);"/>
		<g>
			<path class="st11" d="M579.9,663.3c2-28.4-4.9-58.4-36.5-58.2c-26.5,0.2-54.2,15.1-57.2,43.5c-1.6,14.8,0.9,28,6.9,38.2&#10;&#9;&#9;&#9;&#9;c26,2.7,50.2,5,72.4,7.2C573.4,686.6,579,676.3,579.9,663.3z" style="fill: rgb(158, 66, 25);"/>
		</g>
	</g>
	<g>
		<path class="st12" d="M663.5,623.1c81.6,7.7,182.1,2.6,231.8-19.5c49.7-22.1,79.9-113-43-105.9c-103.6,6-186.3,15-235.5,15.9&#10;&#9;&#9;&#9;C567.7,514.6,503,608,663.5,623.1z" style="fill: rgb(179, 110, 67);"/>
		<path class="st13" d="M644.6,620.8c-14.9-11.6-27.5-25.8-32.9-46.2c-9.6-27.9,16.5-52.9,88-44.4c59.4,6,117-13.6,177.7-0.5&#10;&#9;&#9;&#9;c31.7,6.4,37,49.1,21.3,72.2c47.5-24.6,73.5-111.1-46.4-104.2c-103.6,6-186.3,15-235.5,15.9C569.8,514.5,508.4,600.4,644.6,620.8z&#10;&#9;&#9;&#9;" style="fill: rgb(205, 174, 134);"/>
		<path class="st14" d="M691.2,569.9c-4.7-31.3,20.1-52.5,46.2-53c26-0.5,44.7,20.7,48.1,51.2c3.2,28.6-20.5,48.2-46.2,53&#10;&#9;&#9;&#9;C708.6,626.9,695.4,598.3,691.2,569.9z" style="fill: rgb(164, 77, 31);"/>
	</g>
	<g>
		<path class="st9" d="M596.9,712c-78.8-22.6-178.5-36.3-231.4-23.7c-52.9,12.5-99.4,96.2,22.6,112c102.9,13.3,185.9,19.8,234.3,28&#10;&#9;&#9;&#9;S751.8,756.5,596.9,712z" style="fill: rgb(173, 96, 54);"/>
		<path class="st10" d="M615.1,717.8c12.5,14.2,22.2,30.4,23.8,51.5c4.3,29.2-26,48.9-94.7,27.3c-57.2-16.9-117.4-8.3-174.8-32.4&#10;&#9;&#9;&#9;c-30-12.1-27.3-55.1-7.5-74.9c-51.3,15.4-92.8,95.6,26.3,111c102.9,13.3,185.9,19.8,234.3,28C668.9,836.1,745.1,763.1,615.1,717.8&#10;&#9;&#9;&#9;z" style="fill: rgb(198, 158, 115);"/>
		<path class="st11" d="M559.9,759.2c-1.2,31.6-29.5,47.9-55.2,43.6s-40.1-28.6-37.8-59.2c2.2-28.7,29.1-43.5,55.2-43.6&#10;&#9;&#9;&#9;C553.3,699.9,561,730.5,559.9,759.2z" style="fill: rgb(158, 66, 25);"/>
	</g>
	<g>
		<g>
			<path class="st15" d="M1079.1,1040.1l-11.9-6.5c-5-2.7-7-8.9-4.5-14c19.9-40.7,42.2-112.8,49.9-204.2c5.9-70,4.9-173.7-32-275.7&#10;&#9;&#9;&#9;&#9;c-2.1-5.8,1.5-12.2,7.5-13.3l3.2-0.6c5.3-1,10.5,1.9,12.3,7C1173.9,723.6,1130.5,945.7,1079.1,1040.1z" style="fill: rgb(201, 204, 69);"/>
		</g>
		<g>
			<path class="st16" d="M1038.4,1083.8c-4.4,4.5-11.8,4.2-15.9-0.6c-15.4-18.4-27.1-42.6-35.7-73.7c-8.7-31.4-14-69.2-16.2-115.5&#10;&#9;&#9;&#9;&#9;c-3.8-81.6,2.7-178,10.6-278.3c0.5-5.9,5.7-10.4,11.6-9.9l2.4,0.2c5.9,0.5,10.4,5.7,9.9,11.6c-7.9,99.4-14.4,195-10.6,275.2&#10;&#9;&#9;&#9;&#9;c4,84.8,19.1,142.2,46.2,174.8c3.5,4.2,3.2,10.5-0.7,14.4L1038.4,1083.8z" style="fill: rgb(70, 133, 37);"/>
		</g>
		<g>
			<path class="st17" d="M1011.3,1081.3l-2.5-0.2c-5.9-0.5-10.3-5.6-9.9-11.5c9.3-123,12.3-281.9,8.9-472.6&#10;&#9;&#9;&#9;&#9;c-0.1-5.9,4.6-10.8,10.5-10.9l2.5,0c5.9-0.1,10.8,4.6,10.9,10.5c3.4,191.4,0.4,351-9,474.8&#10;&#9;&#9;&#9;&#9;C1022.5,1077.3,1017.3,1081.8,1011.3,1081.3z" style="fill: rgb(85, 156, 36);"/>
		</g>
		<g>
			<path class="st18" d="M1116.4,1066.7l-12-6.5c22.2-40.7,34-112.5,35.1-213.4c0.9-81.7-4.5-174.7-17.5-285.5&#10;&#9;&#9;&#9;&#9;c-1.1-9.3,3.6-18.4,11.8-22.9l0,0c4.3-2.4,9.6,0.4,10.2,5.3c13.8,116.2,20.4,218.2,19.4,303.4c-1.1,97.7-12.3,169.9-33.3,215.1&#10;&#9;&#9;&#9;&#9;C1127.8,1067.4,1121.4,1069.4,1116.4,1066.7z" style="fill: rgb(75, 138, 40);"/>
		</g>
		<g>
			<path class="st18" d="M1041.4,1069.5c-4.5,1.5-9.3-1.1-10.6-5.6c-16.3-57.8-13.1-135.8-9.5-225.4c3.4-84.9,7.3-180.7-4.2-281.1&#10;&#9;&#9;&#9;&#9;c-0.5-4.5,2.7-8.6,7.3-9.2l7.3-0.9c4.6-0.6,8.7,2.7,9.3,7.3c11.6,102.1,7.7,199,4.3,284.8c-3.5,87.5-6.6,163.5,8.6,217.6&#10;&#9;&#9;&#9;&#9;c1.2,4.3-1.2,8.8-5.4,10.1L1041.4,1069.5z" style="fill: rgb(75, 138, 40);"/>
		</g>
		<g>
			<path class="st19" d="M1069.3,1066.8c-19.8-60.9-20.2-139.8-20.6-231.2c-0.3-75.2-0.7-160.2-11.5-254.3c-0.7-5.9,3.5-11.3,9.5-12&#10;&#9;&#9;&#9;&#9;l13.1-1.6c12.2,99.8,12.6,189,12.9,267.8c0.4,85.1,0.7,159.1,16.9,215.5c1.3,4.7-1.3,9.6-5.9,11.1L1069.3,1066.8z" style="fill: rgb(200, 203, 68);"/>
		</g>
		<g>
			<path class="st20" d="M1114.1,1049.8l-10.4,0.5c-7.6,0.3-13.9-5.6-14.1-13.2c-0.4-21.4,0.1-46.3,0.7-74.3&#10;&#9;&#9;&#9;&#9;c2.3-114.4,5.5-270.2-47.4-412.9c-1.7-4.6,0.6-9.8,5.2-11.6l5.5-2.1c4.7-1.8,10,0.6,11.8,5.3c23.8,64.1,38.7,136,45.5,219.7&#10;&#9;&#9;&#9;&#9;c6.1,74.3,4.6,145.1,3.5,202C1113.6,997.1,1113,1026.4,1114.1,1049.8z" style="fill: rgb(159, 190, 63);"/>
		</g>
	</g>
	<g>
		<path class="st9" d="M1021.9,517.1c-80.1,17.3-174.8,52.4-216.3,88.6c-41.5,36.2-45.8,132.7,69.6,88.8&#10;&#9;&#9;&#9;c97.4-37,174.1-70.6,220.8-86.3C1142.8,592.6,1179.4,483.2,1021.9,517.1z" style="fill: rgb(173, 96, 54);"/>
		<path class="st10" d="M1021.9,517.1c-80.1,17.3-174.8,52.4-216.3,88.6c-6.9,6-12.7,13.7-17.2,22.1&#10;&#9;&#9;&#9;c47.9-19.6,111.7-29.5,111.8-29.5c47,8.2,104.2-3.9,122.1-51.9c12.8-32.9,164.4-16.4,40.6,73.9c12.3-4.7,23.4-8.8,33.1-12.1&#10;&#9;&#9;&#9;C1142.8,592.6,1179.4,483.2,1021.9,517.1z" style="fill: rgb(198, 158, 115);"/>
		<g>
			<path class="st11" d="M893,591.4c11.5,28.3,35.1,43,59.8,34.7s42.7-36.2,29.8-64.9c-5-11-11.5-21.6-19.5-29&#10;&#9;&#9;&#9;&#9;c-23.8,7.1-47.4,15.3-69.4,24.3C889.1,567.2,888.1,579.3,893,591.4z" style="fill: rgb(158, 66, 25);"/>
		</g>
	</g>
	<g>
		<path class="st12" d="M658.5,769c81.9-1.9,181.3-18.8,228.7-46.5c47.3-27.8,69-121.7-52.5-100.3&#10;&#9;&#9;&#9;c-102.5,18.1-183.9,36.7-232.7,43.4C553.2,672.2,497.5,772.8,658.5,769z" style="fill: rgb(179, 110, 67);"/>
		<path class="st13" d="M658.5,769c81.9-1.9,181.3-18.8,228.7-46.5c7.8-4.6,15-11,20.9-18.4c-50.6,10.2-115.2,8-115.3,8&#10;&#9;&#9;&#9;c-44.7-16.8-103.2-15.7-129.4,28.1c-18.5,29.9-164.6-14.7-26.6-80.2c-12.9,2.3-24.5,4.2-34.7,5.6&#10;&#9;&#9;&#9;C553.2,672.2,497.5,772.8,658.5,769z" style="fill: rgb(205, 174, 134);"/>
		<g>
			<path class="st14" d="M798.7,720.2c-6.2-30-26.7-48.9-52.6-45.3c-25.8,3.5-48.5,27.5-41,58.1c2.9,11.8,7.4,23.4,13.9,32.1&#10;&#9;&#9;&#9;&#9;c24.7-2.5,49.4-6.2,72.6-10.9C798.2,744.7,801.3,733,798.7,720.2z" style="fill: rgb(164, 77, 31);"/>
		</g>
	</g>
	<g>
		<path class="st21" d="M650.2,1159c0,0-99.7-27.6-136.9-33.6c10.6-43.1,33.6-136.9,33.6-136.9s112.7,27.6,136.9,33.6&#10;&#9;&#9;&#9;C664.6,1084.2,650.2,1159,650.2,1159z" style="fill: rgb(191, 120, 85);"/>
		<path class="st21" d="M661.5,1166.6c0,0-99.7-27.6-136.9-33.6c0,0-11.5-6.8-11.2-7.7c10.8-44.2,44.8-129.2,44.8-129.2&#10;&#9;&#9;&#9;s112.7,27.6,136.9,33.6C675.8,1091.9,661.5,1166.6,661.5,1166.6z" style="fill: rgb(191, 120, 85);"/>
		<path class="st22" d="M517.1,1110.1c-1.4,5.6-2.6,10.7-3.8,15.3c37.2,6,136.9,33.6,136.9,33.6s10.1-52.6,24.7-106.2&#10;&#9;&#9;&#9;C617.6,1055.6,579.1,1055.5,517.1,1110.1z" style="fill: rgb(198, 136, 102);"/>
	</g>
	<g>
		<path class="st23" d="M371.7,961.6l-4.9,11.5c0,0,22,94,32.2,137.3c35.9-11.5,137.3-32.2,137.3-32.2l4.9-11.5L371.7,961.6z" style="fill: rgb(216, 180, 124);"/>
		<path class="st24" d="M541.2,1066.7c0,0-101.3,20.6-137.3,32.2c-10.1-43.2-32.2-137.3-32.2-137.3s113-26.5,137.3-32.2&#10;&#9;&#9;&#9;C520.1,993.6,541.2,1066.7,541.2,1066.7z" style="fill: rgb(216, 185, 135);"/>
		<path class="st25" d="M533.8,1039.8c-3.9-14.9-9-34.8-13.9-56.3c-42.4-18.6-89.9-20.5-136.2-24.7c-7.5,1.8-12,2.8-12,2.8&#10;&#9;&#9;&#9;s12.3,52.3,22.7,96.8C433,1092.3,497,1073.4,533.8,1039.8z" style="fill: rgb(223, 195, 143);"/>
	</g>
	<g>
		<path class="st26" d="M494.8,815.4l-9.1-12.7l-141,141l9.1,12.7c37.6-3,141,0,141,0S490.9,880.3,494.8,815.4z" style="fill: rgb(229, 195, 161);"/>
		<path class="st27" d="M485.7,943.7c0,0-103.4-3-141,0c0-44.4,0-141,0-141s116,0,141,0C481.8,867.6,485.7,943.7,485.7,943.7z" style="fill: rgb(237, 209, 176);"/>
		<path class="st28" d="M408,933.8c50-15,56-77,76-120c0.4-0.8,0.8-1.5,1.2-2.2c0.1-3,0.3-6,0.5-8.9c-24.9,0-141,0-141,0&#10;&#9;&#9;&#9;s0,92.8,0,138.3C366.1,941.1,387.4,939.8,408,933.8z" style="fill: rgb(243, 224, 199);"/>
	</g>
	<g>
		<path class="st29" d="M765.1,1018.8c0,0-101.3,20.6-137.3,32.2c-10.1-43.2-32.2-137.3-32.2-137.3s113-26.5,137.3-32.2&#10;&#9;&#9;&#9;C744,945.7,765.1,1018.8,765.1,1018.8z" style="fill: rgb(237, 210, 178);"/>
		<path class="st28" d="M640,976.8c20.6-33.8,44.7-63.6,72.1-90.3c-40.8,9.6-116.4,27.3-116.4,27.3s10.8,46.1,20.8,88.6&#10;&#9;&#9;&#9;C625.9,995.5,633.9,986.8,640,976.8z" style="fill: rgb(243, 224, 199);"/>
	</g>
	<g>
		<path class="st30" d="M654.2,866.9l-185.5,73l4.3,10.4c35.7,12.2,129.3,56.3,129.3,56.3s26.8-71.2,56.3-129.3L654.2,866.9z" style="fill: rgb(244, 213, 189);"/>
		<path class="st31" d="M597.9,996.2c0,0-93.6-44.1-129.3-56.3c17.7-40.7,56.3-129.3,56.3-129.3s106.4,46.3,129.3,56.3&#10;&#9;&#9;&#9;C624.7,924.9,597.9,996.2,597.9,996.2z" style="fill: rgb(249, 229, 210);"/>
		<path class="st32" d="M633.6,858c-38.6-16.8-108.7-47.3-108.7-47.3s-38.6,88.6-56.3,129.3c1.1,0.4,2.2,0.8,3.4,1.2&#10;&#9;&#9;&#9;c36.2-21.1,84.8-12.5,127-17.3C621.6,922.4,650.3,898.9,633.6,858z" style="fill: rgb(254, 244, 233);"/>
	</g>
	<g>
		<path class="st33" d="M973.1,692.5c32.5,35.1,37.3,75.5,0,122.5c-29.8,37.4-88.6,33.8-122.5,0s-36.4-79.1,0-122.5&#10;&#9;&#9;&#9;C881.4,655.9,931,647,973.1,692.5z" style="fill: rgb(24, 24, 28);"/>
		<path class="st1" d="M963.5,692.2c27.4,29.6,31.5,63.7,0,103.2c-25.1,31.5-74.7,28.5-103.2,0c-28.5-28.5-30.7-66.6,0-103.2&#10;&#9;&#9;&#9;C886.2,661.3,928,653.8,963.5,692.2z" style="fill: rgb(37, 37, 40);"/>
		<path class="st34" d="M919.7,748.2c0.5-19.3-0.6-39.7-5.1-58.7c-1.5,13.4-2.9,39.9-3.5,52.8c-12.7-13.2-27-26.1-42.5-36.1&#10;&#9;&#9;&#9;c9.6,12.5,27.5,32.5,38,44.1c-27.8,4.5-49.1,5.8-58.8,6.8c20.3,5.2,43.2,4.8,62.6,1.6c-0.8,17.8-1.7,41.5-1.1,59.1&#10;&#9;&#9;&#9;c5.4-16.7,8.3-36.7,9.7-54c11.1,12.1,24.4,26.2,36.3,37.3c-8-15.4-20.2-31.7-31.5-44.9c15.8-3.6,33.2-9.4,47.3-17.6&#10;&#9;&#9;&#9;C952.7,742,943.5,744.1,919.7,748.2z" style="fill: rgb(212, 201, 172);"/>
	</g>
	<g>
		<path class="st35" d="M757.2,1058.5c4.3,12.3-5.8,23.1-16.6,30.7l49.1,49.1c3.7,3.7-0.4,14-9.3,22.8c-8.9,8.9-19.1,13.1-22.8,9.3&#10;&#9;&#9;&#9;l-49.1-49.1c-7.6,10.8-18.4,20.9-30.7,16.6c-12.1-4.2-16.9-32,15.3-64.1S753,1046.4,757.2,1058.5z" style="fill: rgb(214, 191, 135);"/>
		<g>
			<path class="st36" d="M757.2,1058.5c4.3,12.3-15.2,23.1-25.9,30.7l58.5,49.1c3.7,3.7-0.4,14-9.3,22.8&#10;&#9;&#9;&#9;&#9;c-8.9,8.9-19.1,13.1-22.8,9.3l-49.1-58.5c-7.6,10.8-18.4,30.2-30.7,25.9c-12.1-4.2-16.9-32,15.3-64.1S753,1046.4,757.2,1058.5z" style="fill: rgb(229, 222, 168);"/>
		</g>
		
			<path d="M 796.399975 1154.400024 A 22.799999 9.6 0 0 1 773.599976 1164.000025 A 22.799999 9.6 0 0 1 750.799976 1154.400024 A 22.799999 9.6 0 0 1 773.599976 1144.800024 A 22.799999 9.6 0 0 1 796.399975 1154.400024 Z" transform="matrix(0.7071 -0.7071 0.7071 0.7071 -589.6667 885.1306)" class="st35" style="fill: rgb(214, 191, 135);"/>
	</g>
	<g>
		<path class="st35" d="M822.6,1198.7c4.2-12.3,18.8-14.6,32-13.9l-8.4-68.9c-0.6-5.2,9-10.7,21.4-12.2c12.5-1.5,23.1,1.5,23.7,6.7&#10;&#9;&#9;&#9;l8.4,68.9c12.6-3.8,27.3-5.1,34.4,5.8c7,10.8-6.4,35.6-51.6,41.1C837.4,1231.7,818.5,1210.9,822.6,1198.7z" style="fill: rgb(214, 191, 135);"/>
		<g>
			<path class="st36" d="M822.6,1198.7c4.2-12.3,26.2-8.9,39.3-8.2l-15.8-74.7c-0.6-5.2,9-10.7,21.4-12.2s23.1,1.5,23.7,6.7&#10;&#9;&#9;&#9;&#9;l2.7,76.3c12.6-3.8,33.1-12.5,40.1-1.5c7,10.8-6.4,35.6-51.6,41.1C837.4,1231.7,818.5,1210.9,822.6,1198.7z" style="fill: rgb(229, 222, 168);"/>
		</g>
		
			<path d="M 891.500011 1113.099976 A 22.799999 9.6 0 0 1 868.700012 1122.699976 A 22.799999 9.6 0 0 1 845.900013 1113.099976 A 22.799999 9.6 0 0 1 868.700012 1103.499975 A 22.799999 9.6 0 0 1 891.500011 1113.099976 Z" transform="matrix(0.9926 -0.1213 0.1213 0.9926 -128.5641 113.559)" class="st35" style="fill: rgb(214, 191, 135);"/>
	</g>
	<g>
		<path class="st35" d="M994.5,1040.7c-5.7,11.7-20.4,12.2-33.4,10v69.4c0,5.3-10.2,9.6-22.8,9.6c-12.6,0-22.8-4.3-22.8-9.6v-69.4&#10;&#9;&#9;&#9;c-13,2.3-27.7,1.8-33.4-10c-5.6-11.6,10.7-34.6,56.2-34.6C983.8,1006.1,1000.1,1029.1,994.5,1040.7z" style="fill: rgb(214, 191, 135);"/>
		<g>
			<path class="st36" d="M994.5,1040.7c-5.7,11.7-27.1,5.6-40,3.4l6.6,76.1c0,5.3-10.2,9.6-22.8,9.6c-12.6,0-22.8-4.3-22.8-9.6&#10;&#9;&#9;&#9;&#9;l6.6-76.1c-13,2.3-34.3,8.4-40-3.4c-5.6-11.6,10.7-34.6,56.2-34.6C983.8,1006.1,1000.1,1029.1,994.5,1040.7z" style="fill: rgb(229, 222, 168);"/>
		</g>
		<path d="M 961.099987 1120.099976 A 22.799999 9.6 0 0 1 938.299988 1129.699976 A 22.799999 9.6 0 0 1 915.499989 1120.099976 A 22.799999 9.6 0 0 1 938.299988 1110.499975 A 22.799999 9.6 0 0 1 961.099987 1120.099976 Z" class="st35" style="fill: rgb(214, 191, 135);"/>
	</g>
	<g>
		<path class="st37" d="M772.3,1051.4c12.3-4.3,23.1,5.8,30.7,16.6l49.1-49.1c3.7-3.7,14,0.4,22.8,9.3c8.9,8.9,13.1,19.1,9.3,22.8&#10;&#9;&#9;&#9;l-49.1,49.1c10.8,7.6,20.9,18.4,16.6,30.7c-4.2,12.1-32,16.9-64.1-15.3C755.4,1083.4,760.2,1055.6,772.3,1051.4z" style="fill: rgb(224, 206, 153);"/>
		<g>
			<path class="st38" d="M772.3,1051.4c12.3-4.3,23.1,15.2,30.7,25.9l49.1-58.5c3.7-3.7,14,0.4,22.8,9.3c8.9,8.9,13.1,19.1,9.3,22.8&#10;&#9;&#9;&#9;&#9;l-58.5,49.1c10.8,7.6,30.2,18.4,25.9,30.7c-4.2,12.1-32,16.9-64.1-15.3C755.4,1083.4,760.2,1055.6,772.3,1051.4z" style="fill: rgb(241, 237, 196);"/>
		</g>
		
			<path d="M 877.800013 1035 A 9.6 22.799999 0 0 1 868.200012 1057.799999 A 9.6 22.799999 0 0 1 858.600012 1035 A 9.6 22.799999 0 0 1 868.200012 1012.200001 A 9.6 22.799999 0 0 1 877.800013 1035 Z" transform="matrix(0.7071 -0.7071 0.7071 0.7071 -477.5692 917.0345)" class="st37" style="fill: rgb(224, 206, 153);"/>
	</g>
	<g>
		<path class="st33" d="M812.9,916.8c32.5,35.1,37.3,75.5,0,122.5c-29.8,37.4-88.6,33.8-122.5,0c-33.8-33.8-36.4-79.1,0-122.5&#10;&#9;&#9;&#9;C721.2,880.1,770.7,871.3,812.9,916.8z" style="fill: rgb(24, 24, 28);"/>
		<path class="st1" d="M803.3,916.4c27.4,29.6,31.5,63.7,0,103.2c-25.1,31.5-74.7,28.5-103.2,0s-30.7-66.6,0-103.2&#10;&#9;&#9;&#9;C726,885.5,767.7,878,803.3,916.4z" style="fill: rgb(37, 37, 40);"/>
		<path class="st34" d="M759.5,972.4c0.5-19.3-0.6-39.7-5.1-58.7c-1.5,13.4-2.9,39.9-3.5,52.8c-12.7-13.2-27-26.1-42.5-36.1&#10;&#9;&#9;&#9;c9.6,12.5,27.5,32.5,38,44.1c-27.8,4.5-49.1,5.8-58.8,6.8c20.3,5.2,43.2,4.8,62.6,1.6c-0.8,17.8-1.7,41.5-1.1,59.1&#10;&#9;&#9;&#9;c5.4-16.7,8.3-36.7,9.7-54c11.1,12.1,24.4,26.2,36.3,37.3c-8-15.4-20.2-31.7-31.5-44.9c15.8-3.6,33.2-9.4,47.3-17.6&#10;&#9;&#9;&#9;C792.5,966.2,783.3,968.3,759.5,972.4z" style="fill: rgb(212, 201, 172);"/>
	</g>
	<g>
		<path class="st33" d="M853.6,817.3c-1.8,47.8-27,79.8-86.6,86.6c-47.5,5.4-86.6-38.8-86.6-86.6s30.2-81.6,86.6-86.6&#10;&#9;&#9;&#9;C814.6,726.5,855.9,755.3,853.6,817.3z" style="fill: rgb(24, 24, 28);"/>
		<path class="st1" d="M837.9,808.1c-1.5,40.3-22.8,67.3-73,73c-40.1,4.6-73-32.7-73-73s25.4-68.8,73-73&#10;&#9;&#9;&#9;C805.1,731.6,839.9,755.9,837.9,808.1z" style="fill: rgb(37, 37, 40);"/>
		<path class="st34" d="M776.5,818.9c14.1-13.3,27.7-28.5,37.9-45c-10.5,8.4-30.2,26.2-39.8,34.8c0.4-18.3-0.7-37.6-4.5-55.6&#10;&#9;&#9;&#9;c-2,15.6-3.5,42.5-4.4,58.1c-22.9-16.5-38.9-30.6-46.4-36.8c10.7,18,27.1,33.9,43.1,45.4c-13.2,12-30.6,28.2-42.6,41&#10;&#9;&#9;&#9;c15.6-8,31.8-20,45-31.4c-0.7,16.4-1.3,35.8-0.7,52.1c5.2-16.6,8.2-36.7,9.5-54.1c13.7,8.6,30.1,16.9,45.9,21&#10;&#9;&#9;&#9;C804.2,837.8,796.2,832.8,776.5,818.9z" style="fill: rgb(212, 201, 172);"/>
	</g>
	<g>
		<path class="st33" d="M830.6,857.5c35.1-32.5,75.5-37.3,122.5,0c37.4,29.8,33.8,88.6,0,122.5c-33.8,33.8-79.1,36.4-122.5,0&#10;&#9;&#9;&#9;C793.9,949.2,785.1,899.7,830.6,857.5z" style="fill: rgb(24, 24, 28);"/>
		<path class="st1" d="M839.9,857.4c29.6-27.4,63.7-31.5,103.2,0c31.5,25.1,28.5,74.7,0,103.2s-66.6,30.7-103.2,0&#10;&#9;&#9;&#9;C809,934.7,801.5,893,839.9,857.4z" style="fill: rgb(37, 37, 40);"/>
		<path class="st34" d="M886.3,910.9c-19.3-0.5-39.7,0.6-58.7,5.1c13.4,1.5,39.9,2.9,52.8,3.5c-13.2,12.7-26.1,27-36.1,42.5&#10;&#9;&#9;&#9;c12.5-9.6,32.5-27.5,44.1-38c4.5,27.8,5.8,49.1,6.8,58.8c5.2-20.3,4.8-43.2,1.6-62.6c17.8,0.8,41.5,1.7,59.1,1.1&#10;&#9;&#9;&#9;c-16.7-5.4-36.7-8.3-54-9.7c12.1-11.1,26.2-24.4,37.3-36.3c-15.4,8-31.7,20.2-44.9,31.5c-3.6-15.8-9.4-33.2-17.6-47.3&#10;&#9;&#9;&#9;C880,877.9,882.2,887.1,886.3,910.9z" style="fill: rgb(212, 201, 172);"/>
	</g>
	<g>
		<path class="st17" d="M753.3,736.3v22c0,3.8,5.3,6.9,11.8,6.9c6.5,0,11.8-3.1,11.8-6.9v-22H753.3z" style="fill: rgb(85, 156, 36);"/>
		<path d="M 776.899976 736.299988 A 11.8 6.9 0 0 1 765.099976 743.199988 A 11.8 6.9 0 0 1 753.299975 736.299988 A 11.8 6.9 0 0 1 765.099976 729.399988 A 11.8 6.9 0 0 1 776.899976 736.299988 Z" class="st16" style="fill: rgb(70, 133, 37);"/>
	</g>
	<g>
		<path class="st17" d="M551.1,790.5l15.5,15.5c2.7,2.7,8.6,1.2,13.3-3.5s6.2-10.6,3.5-13.3l-15.5-15.5L551.1,790.5z" style="fill: rgb(85, 156, 36);"/>
		
			<path d="M 571.3 782.099976 A 11.8 6.9 0 0 1 559.5 788.999976 A 11.8 6.9 0 0 1 547.7 782.099976 A 11.8 6.9 0 0 1 559.5 775.199975 A 11.8 6.9 0 0 1 571.3 782.099976 Z" transform="matrix(0.7071 -0.7071 0.7071 0.7071 -389.1706 624.6746)" class="st16" style="fill: rgb(70, 133, 37);"/>
	</g>
	<g>
		<path class="st17" d="M946.2,957l15.5,15.5c2.7,2.7,8.6,1.2,13.3-3.5s6.2-10.6,3.5-13.3l-15.5-15.5L946.2,957z" style="fill: rgb(85, 156, 36);"/>
		
			<path d="M 966.399976 948.599976 A 11.8 6.9 0 0 1 954.599976 955.499976 A 11.8 6.9 0 0 1 942.799975 948.599976 A 11.8 6.9 0 0 1 954.599976 941.699975 A 11.8 6.9 0 0 1 966.399976 948.599976 Z" transform="matrix(0.7071 -0.7071 0.7071 0.7071 -391.1624 952.8248)" class="st16" style="fill: rgb(70, 133, 37);"/>
	</g>
	<g>
		<path class="st17" d="M859.1,801.8l-15.5,15.5c-2.7,2.7-1.2,8.6,3.5,13.3s10.6,6.2,13.3,3.5l15.5-15.5L859.1,801.8z" style="fill: rgb(85, 156, 36);"/>
		
			<path d="M 874.300025 810.200012 A 6.9 11.8 0 0 1 867.400024 822.000012 A 6.9 11.8 0 0 1 860.500024 810.200012 A 6.9 11.8 0 0 1 867.400024 798.400012 A 6.9 11.8 0 0 1 874.300025 810.200012 Z" transform="matrix(0.7071 -0.7071 0.7071 0.7071 -318.8198 850.655)" class="st16" style="fill: rgb(70, 133, 37);"/>
	</g>
	<g>
		<path class="st17" d="M638,663l-15.5,15.5c-2.7,2.7-1.2,8.6,3.5,13.3c4.6,4.6,10.6,6.2,13.3,3.5l15.5-15.5L638,663z" style="fill: rgb(85, 156, 36);"/>
		
			<path d="M 653.300025 671.299988 A 6.9 11.8 0 0 1 646.400024 683.099988 A 6.9 11.8 0 0 1 639.500024 671.299988 A 6.9 11.8 0 0 1 646.400024 659.499988 A 6.9 11.8 0 0 1 653.300025 671.299988 Z" transform="matrix(0.7071 -0.7071 0.7071 0.7071 -285.3857 653.6996)" class="st16" style="fill: rgb(70, 133, 37);"/>
	</g>
	<g>
		<path class="st17" d="M796.5,794.5L781,810c-2.7,2.7-1.2,8.6,3.5,13.3c4.6,4.6,10.6,6.2,13.3,3.5l15.5-15.5L796.5,794.5z" style="fill: rgb(85, 156, 36);"/>
		
			<path d="M 811.800025 802.900024 A 6.9 11.8 0 0 1 804.900024 814.700025 A 6.9 11.8 0 0 1 798.000024 802.900024 A 6.9 11.8 0 0 1 804.900024 791.100024 A 6.9 11.8 0 0 1 811.800025 802.900024 Z" transform="matrix(0.7071 -0.7071 0.7071 0.7071 -331.9771 804.3114)" class="st16" style="fill: rgb(70, 133, 37);"/>
	</g>
	<g>
		<path class="st17" d="M743,950.1l-15.5,15.5c-2.7,2.7-1.2,8.6,3.5,13.3s10.6,6.2,13.3,3.5l15.5-15.5L743,950.1z" style="fill: rgb(85, 156, 36);"/>
		
			<path d="M 758.300025 958.5 A 6.9 11.8 0 0 1 751.400024 970.3 A 6.9 11.8 0 0 1 744.500024 958.5 A 6.9 11.8 0 0 1 751.400024 946.7 A 6.9 11.8 0 0 1 758.300025 958.5 Z" transform="matrix(0.7071 -0.7071 0.7071 0.7071 -457.6855 812.0401)" class="st16" style="fill: rgb(70, 133, 37);"/>
	</g>
	<g>
		<path class="st17" d="M808.2,662.2l15.5,15.5c2.7,2.7,8.6,1.2,13.3-3.5s6.2-10.6,3.5-13.3L825,645.5L808.2,662.2z" style="fill: rgb(85, 156, 36);"/>
		
			<path d="M 828.399976 653.900024 A 11.8 6.9 0 0 1 816.599976 660.800025 A 11.8 6.9 0 0 1 804.799975 653.900024 A 11.8 6.9 0 0 1 816.599976 647.000024 A 11.8 6.9 0 0 1 828.399976 653.900024 Z" transform="matrix(0.7071 -0.7071 0.7071 0.7071 -223.1883 768.9397)" class="st16" style="fill: rgb(70, 133, 37);"/>
	</g>
	<g>
		<path class="st17" d="M770,859.8l15.5,15.5c2.7,2.7,8.6,1.2,13.3-3.5c4.6-4.6,6.2-10.6,3.5-13.3L786.7,843L770,859.8z" style="fill: rgb(85, 156, 36);"/>
		
			<path d="M 790.200025 851.400024 A 11.8 6.9 0 0 1 778.400024 858.300025 A 11.8 6.9 0 0 1 766.600024 851.400024 A 11.8 6.9 0 0 1 778.400024 844.500024 A 11.8 6.9 0 0 1 790.200025 851.400024 Z" transform="matrix(0.7071 -0.7071 0.7071 0.7071 -374.0488 799.7568)" class="st16" style="fill: rgb(70, 133, 37);"/>
	</g>
	<g>
		<path class="st17" d="M674.3,850.8l-15.5,15.5c-2.7,2.7-1.2,8.6,3.5,13.3c4.6,4.6,10.6,6.2,13.3,3.5l15.5-15.5L674.3,850.8z" style="fill: rgb(85, 156, 36);"/>
		
			<path d="M 689.600012 859.200012 A 6.9 11.8 0 0 1 682.700012 871.000012 A 6.9 11.8 0 0 1 675.800012 859.200012 A 6.9 11.8 0 0 1 682.700012 847.400012 A 6.9 11.8 0 0 1 689.600012 859.200012 Z" transform="matrix(0.7071 -0.7071 0.7071 0.7071 -407.5653 734.3658)" class="st16" style="fill: rgb(70, 133, 37);"/>
	</g>
	<g>
		<path class="st20" d="M588.1,669.2c-22.5,0-40.8-18.3-40.8-40.8c0-22.5,18.3-40.8,40.8-40.8c22.5,0,40.8,18.3,40.8,40.8&#10;&#9;&#9;&#9;C628.9,650.9,610.6,669.2,588.1,669.2z M588.1,598.7c-16.4,0-29.8,13.3-29.8,29.8c0,16.4,13.3,29.8,29.8,29.8&#10;&#9;&#9;&#9;c16.4,0,29.8-13.3,29.8-29.8C617.9,612,604.5,598.7,588.1,598.7z" style="fill: rgb(159, 190, 63);"/>
	</g>
	<g>
		<path class="st20" d="M884.4,949.8c-10.2,0-18.6-8.3-18.6-18.6c0-10.2,8.3-18.6,18.6-18.6c10.2,0,18.6,8.3,18.6,18.6&#10;&#9;&#9;&#9;C903,941.5,894.7,949.8,884.4,949.8z M884.4,917.7c-7.5,0-13.6,6.1-13.6,13.6c0,7.5,6.1,13.6,13.6,13.6c7.5,0,13.6-6.1,13.6-13.6&#10;&#9;&#9;&#9;C898,923.7,891.9,917.7,884.4,917.7z" style="fill: rgb(159, 190, 63);"/>
	</g>
	<g>
		<path class="st20" d="M699.8,699.9c-5.4,0-9.8,4.4-9.8,9.8c0,5.4,4.4,9.8,9.8,9.8c5.4,0,9.8-4.4,9.8-9.8&#10;&#9;&#9;&#9;C709.7,704.4,705.3,699.9,699.8,699.9z" style="fill: rgb(159, 190, 63);"/>
	</g>
	<g>
		<path class="st20" d="M721.9,836.5c-5.4,0-9.8,4.4-9.8,9.8c0,5.4,4.4,9.8,9.8,9.8c5.4,0,9.8-4.4,9.8-9.8&#10;&#9;&#9;&#9;C731.8,840.9,727.4,836.5,721.9,836.5z" style="fill: rgb(159, 190, 63);"/>
	</g>
	<g>
		<path class="st20" d="M889.7,843.1c-5.4,0-9.8,4.4-9.8,9.8c0,5.4,4.4,9.8,9.8,9.8c5.4,0,9.8-4.4,9.8-9.8&#10;&#9;&#9;&#9;C899.6,847.5,895.2,843.1,889.7,843.1z" style="fill: rgb(159, 190, 63);"/>
	</g>
	<g>
		<path class="st16" d="M836.1,695.9c-5.4,0-9.8,4.4-9.8,9.8c0,5.4,4.4,9.8,9.8,9.8c5.4,0,9.8-4.4,9.8-9.8&#10;&#9;&#9;&#9;C845.9,700.3,841.5,695.9,836.1,695.9z" style="fill: rgb(70, 133, 37);"/>
	</g>
	<g>
		<path class="st16" d="M744.1,759.2c-5.4,0-9.8,4.4-9.8,9.8c0,5.4,4.4,9.8,9.8,9.8c5.4,0,9.8-4.4,9.8-9.8&#10;&#9;&#9;&#9;C754,763.7,749.6,759.2,744.1,759.2z" style="fill: rgb(70, 133, 37);"/>
	</g>
	<g>
		<path class="st17" d="M782.4,880.5c-5.4,0-9.8,4.4-9.8,9.8c0,5.4,4.4,9.8,9.8,9.8c5.4,0,9.8-4.4,9.8-9.8&#10;&#9;&#9;&#9;C792.3,884.9,787.8,880.5,782.4,880.5z" style="fill: rgb(85, 156, 36);"/>
	</g>
	<g>
		<path class="st20" d="M894.4,740.7c-15.8,0-28.6-12.8-28.6-28.6c0-15.8,12.8-28.6,28.6-28.6c15.8,0,28.6,12.8,28.6,28.6&#10;&#9;&#9;&#9;C923,727.9,910.2,740.7,894.4,740.7z M894.4,691.2c-11.5,0-20.9,9.4-20.9,20.9c0,11.5,9.4,20.9,20.9,20.9&#10;&#9;&#9;&#9;c11.5,0,20.9-9.4,20.9-20.9C915.3,700.6,905.9,691.2,894.4,691.2z" style="fill: rgb(159, 190, 63);"/>
	</g>
	<g>
		<path class="st20" d="M721.9,722.6c-15.8,0-28.6-12.8-28.6-28.6c0-15.8,12.8-28.6,28.6-28.6c15.8,0,28.6,12.8,28.6,28.6&#10;&#9;&#9;&#9;C750.5,709.8,737.7,722.6,721.9,722.6z M721.9,673.2c-11.5,0-20.9,9.4-20.9,20.9c0,11.5,9.4,20.9,20.9,20.9&#10;&#9;&#9;&#9;c11.5,0,20.9-9.4,20.9-20.9C742.8,682.5,733.4,673.2,721.9,673.2z" style="fill: rgb(159, 190, 63);"/>
	</g>
	<g>
		<path class="st20" d="M621.2,858.2c-10.8,0-19.5-8.7-19.5-19.5c0-10.8,8.7-19.5,19.5-19.5c10.8,0,19.5,8.7,19.5,19.5&#10;&#9;&#9;&#9;C640.7,849.4,632,858.2,621.2,858.2z M621.2,824.4c-7.9,0-14.2,6.4-14.2,14.2c0,7.9,6.4,14.2,14.2,14.2c7.9,0,14.2-6.4,14.2-14.2&#10;&#9;&#9;&#9;C635.5,830.8,629.1,824.4,621.2,824.4z" style="fill: rgb(159, 190, 63);"/>
	</g>
	<g>
		<path class="st18" d="M665.4,783.9c-14.2,0-25.7-11.5-25.7-25.7c0-14.2,11.5-25.7,25.7-25.7c14.2,0,25.7,11.5,25.7,25.7&#10;&#9;&#9;&#9;C691,772.4,679.5,783.9,665.4,783.9z M665.4,739.4c-10.3,0-18.8,8.4-18.8,18.8c0,10.3,8.4,18.8,18.8,18.8&#10;&#9;&#9;&#9;c10.3,0,18.8-8.4,18.8-18.8C684.1,747.9,675.7,739.4,665.4,739.4z" style="fill: rgb(75, 138, 40);"/>
	</g>
	<g>
		<path class="st37" d="M719.5,1143.6c12.8,2.3,17.3,16.4,18.7,29.5l66.8-18.9c5.1-1.4,12,7.2,15.4,19.3c3.4,12.1,2.1,23.1-3,24.5&#10;&#9;&#9;&#9;l-66.8,18.9c5.7,11.9,9.2,26.2-0.5,34.9c-9.6,8.5-36.1-0.9-48.5-44.7S706.8,1141.4,719.5,1143.6z" style="fill: rgb(224, 206, 153);"/>
		<g>
			<path class="st38" d="M719.5,1143.6c12.8,2.3,12.8,24.5,14.1,37.6l71.4-27c5.1-1.4,12,7.2,15.4,19.3s2.1,23.1-3,24.5l-75,14.3&#10;&#9;&#9;&#9;&#9;c5.7,11.9,17.4,30.8,7.7,39.4c-9.6,8.5-36.1-0.9-48.5-44.7S706.8,1141.4,719.5,1143.6z" style="fill: rgb(241, 237, 196);"/>
		</g>
		
			<path d="M 820.699976 1176.099976 A 9.6 22.799999 0 0 1 811.099976 1198.899975 A 9.6 22.799999 0 0 1 801.499975 1176.099976 A 9.6 22.799999 0 0 1 811.099976 1153.299976 A 9.6 22.799999 0 0 1 820.699976 1176.099976 Z" transform="matrix(0.9624 -0.2718 0.2718 0.9624 -289.1014 264.707)" class="st37" style="fill: rgb(224, 206, 153);"/>
	</g>
	<g>
		<path class="st37" d="M928,1205.3c-5.8-11.7,2.9-23.7,12.6-32.5l-54.9-42.6c-4.2-3.2-1.3-13.9,6.4-23.8&#10;&#9;&#9;&#9;c7.7-9.9,17.3-15.3,21.5-12.1l54.8,42.6c6.2-11.6,15.6-23,28.4-20.3c12.6,2.7,20.7,29.6-7.2,65.6S933.7,1216.8,928,1205.3z" style="fill: rgb(224, 206, 153);"/>
		<g>
			<path class="st38" d="M928,1205.3c-5.8-11.7,12.2-24.8,21.9-33.7l-64.1-41.4c-4.2-3.2-1.3-13.9,6.4-23.8&#10;&#9;&#9;&#9;&#9;c7.7-9.9,17.3-15.3,21.5-12.1l56,51.9c6.2-11.6,14.4-32.3,27.2-29.6c12.6,2.7,20.7,29.6-7.2,65.6S933.7,1216.8,928,1205.3z" style="fill: rgb(241, 237, 196);"/>
		</g>
		
			<path d="M 922.599987 1112.300049 A 22.799999 9.6 0 0 1 899.799988 1121.900049 A 22.799999 9.6 0 0 1 876.999989 1112.300049 A 22.799999 9.6 0 0 1 899.799988 1102.700048 A 22.799999 9.6 0 0 1 922.599987 1112.300049 Z" transform="matrix(0.6133 -0.7898 0.7898 0.6133 -530.5798 1140.7054)" class="st37" style="fill: rgb(224, 206, 153);"/>
	</g>
</g></g></svg>